REM MD5 df24ccf64a1aa4db6bc6ac0cda41ab84
FILE "Segare Ijiri (Japan).bin" BINARY
  TRACK 01 MODE2/2352
    INDEX 01 00:00:00
  TRACK 02 AUDIO
    INDEX 00 62:27:06
    INDEX 01 62:29:06
  TRACK 03 AUDIO
    INDEX 00 63:00:06
    INDEX 01 63:02:06
REM LEADOUT 66:38:56
